<?xml version="1.0" encoding="iso-8859-1"?>
<!-- Generator: Adobe Illustrator 18.0.0, SVG Export Plug-In . SVG Version: 6.00 Build 0)  -->
<!DOCTYPE svg PUBLIC "-//W3C//DTD SVG 1.1//EN" "http://www.w3.org/Graphics/SVG/1.1/DTD/svg11.dtd">
<svg version="1.1" id="Capa_1" xmlns="http://www.w3.org/2000/svg" xmlns:xlink="http://www.w3.org/1999/xlink" x="0px" y="0px"
	 viewBox="0 0 440 440" style="enable-background:new 0 0 440 440;" xml:space="preserve">
<g>
	<path d="M273.912,0H82.191c-7.83,0-14.173,6.344-14.173,14.174v411.653c0,7.827,6.343,14.173,14.173,14.173h275.617
		c7.826,0,14.173-6.346,14.173-14.173V98.063C339.288,65.377,306.603,32.69,273.912,0z M335.506,403.524H104.494V36.476h154.309
		l0.389,0.389c0.606,0.606,1.212,1.211,1.817,1.817v56.021c0,9.52,7.719,17.238,17.242,17.238h56.021
		c0.411,0.411,0.821,0.822,1.232,1.232V403.524z"/>
	<path d="M303.287,237.346H136.713c-7.223,0-13.078,5.855-13.078,13.078c0,7.223,5.855,13.078,13.078,13.078h166.574
		c7.223,0,13.078-5.855,13.078-13.078C316.365,243.201,310.51,237.346,303.287,237.346z"/>
	<path d="M303.287,304.689H136.713c-7.223,0-13.078,5.855-13.078,13.078s5.855,13.078,13.078,13.078h166.574
		c7.223,0,13.078-5.855,13.078-13.078S310.51,304.689,303.287,304.689z"/>
	<path d="M143.382,193.469c1.261,0.506,2.564,0.746,3.843,0.746c4.099,0,7.977-2.454,9.596-6.49l12.702-31.668h34.768l12.766,31.684
		c2.133,5.294,8.153,7.856,13.448,5.724c5.294-2.133,7.857-8.154,5.724-13.448l-39.578-98.23c-1.576-3.911-5.37-6.473-9.586-6.473
		h-0.436c-4.222,0-8.021,2.569-9.592,6.488l-39.399,98.23C135.513,185.327,138.085,191.344,143.382,193.469z M186.867,112.813
		l9.096,22.573h-18.149L186.867,112.813z"/>
</g>
<g>
</g>
<g>
</g>
<g>
</g>
<g>
</g>
<g>
</g>
<g>
</g>
<g>
</g>
<g>
</g>
<g>
</g>
<g>
</g>
<g>
</g>
<g>
</g>
<g>
</g>
<g>
</g>
<g>
</g>
</svg>
