<?xml version="1.0" standalone="no"?>
<!DOCTYPE svg PUBLIC "-//W3C//DTD SVG 20010904//EN"
 "http://www.w3.org/TR/2001/REC-SVG-20010904/DTD/svg10.dtd">
<svg version="1.0" xmlns="http://www.w3.org/2000/svg"
 width="1024.000000pt" height="1024.000000pt" viewBox="0 0 1024.000000 1024.000000"
 preserveAspectRatio="xMidYMid meet">
<metadata>
Created by potrace 1.13, written by Peter Selinger 2001-2015
</metadata>
<g transform="translate(0.000000,1024.000000) scale(0.100000,-0.100000)"
fill="#000000" stroke="none">
<path d="M0 5120 l0 -5120 5120 0 5120 0 0 5120 0 5120 -5120 0 -5120 0 0
-5120z m3868 3466 c28 -5 52 -13 52 -17 0 -5 6 -9 14 -9 12 0 75 -20 171 -55
16 -6 16 -3 -5 15 -23 20 -23 20 -2 10 15 -7 28 -7 40 -1 14 7 19 6 19 -4 0
-7 -6 -11 -14 -8 -7 3 -13 -1 -13 -10 0 -8 15 -20 33 -27 44 -18 251 -146 272
-170 10 -11 24 -16 33 -13 10 4 14 2 9 -2 -4 -5 5 -21 19 -36 19 -20 33 -26
53 -23 25 5 25 5 6 -10 -20 -15 -20 -15 9 -43 23 -22 27 -24 22 -8 -4 11 -3
16 1 11 4 -4 8 -18 8 -29 0 -13 5 -21 13 -19 8 1 11 -2 8 -7 -7 -11 42 -87 54
-84 4 1 7 -3 7 -10 -1 -34 4 -48 15 -41 6 4 8 3 5 -3 -6 -10 18 -78 42 -124 5
-8 15 -49 22 -89 12 -66 15 -71 19 -40 3 19 4 -48 1 -150 -5 -236 -4 -231 -16
-227 -5 2 -9 33 -10 70 0 38 -6 72 -13 79 -9 9 -12 9 -12 -2 0 -7 -3 -10 -6
-7 -4 4 -1 14 7 23 11 14 11 18 1 21 -6 3 -10 9 -7 13 5 8 -37 96 -70 149 -6
9 -19 30 -29 46 -22 34 -115 125 -129 125 -4 0 -6 -4 -3 -8 2 -4 -7 -8 -22 -9
l-27 -2 24 10 c21 8 23 12 10 24 -26 25 -143 79 -147 67 -2 -6 -10 -8 -18 -5
-13 5 -13 8 -2 15 9 7 4 8 -15 3 -17 -3 -26 -2 -23 3 16 26 -328 57 -444 40
-98 -15 -121 -21 -108 -30 8 -5 3 -6 -14 -2 -18 4 -28 2 -28 -6 0 -6 -4 -9 -9
-6 -13 8 -62 -12 -76 -30 -6 -8 -24 -17 -40 -18 -16 -2 -34 -11 -40 -20 -7 -8
-15 -13 -18 -9 -4 3 -7 1 -7 -6 0 -7 -4 -10 -9 -6 -6 3 -14 -2 -19 -11 -5 -9
-12 -15 -15 -15 -21 3 -27 0 -21 -11 4 -6 3 -8 -4 -4 -6 3 -58 -25 -116 -65
-106 -71 -133 -93 -75 -64 17 9 33 14 37 11 3 -3 -1 -6 -9 -6 -10 -1 -8 -5 5
-15 11 -8 15 -15 9 -15 -7 0 -15 5 -18 10 -3 6 -11 10 -17 10 -6 0 -5 -7 3
-17 11 -15 11 -16 -1 -5 -17 15 -34 16 -24 1 5 -8 1 -8 -13 0 -17 8 -25 5 -52
-23 -17 -18 -28 -36 -24 -41 5 -4 0 -5 -9 -2 -12 4 -36 -15 -87 -72 -39 -43
-67 -82 -63 -86 4 -5 1 -5 -5 -1 -8 4 -29 -6 -53 -26 -42 -35 -51 -51 -22 -41
14 5 13 3 -3 -10 -14 -12 -16 -16 -6 -17 8 0 11 -3 8 -7 -4 -3 -17 2 -29 13
-20 18 -21 18 -15 1 4 -11 3 -16 -3 -12 -14 8 -96 -40 -104 -60 -3 -9 -10 -14
-15 -11 -5 4 -26 -3 -46 -15 -28 -17 -33 -24 -23 -31 9 -6 6 -7 -8 -3 -14 3
-28 -1 -38 -10 -9 -9 -16 -13 -16 -9 0 4 -7 -1 -16 -12 -8 -10 -12 -12 -8 -4
7 13 5 13 -9 1 -9 -7 -14 -18 -10 -24 3 -6 1 -7 -6 -3 -14 9 -43 -12 -35 -25
3 -5 -1 -6 -9 -4 -7 3 -28 -11 -46 -31 -27 -29 -31 -38 -20 -46 11 -8 10 -8
-4 -4 -25 8 -60 -33 -45 -52 8 -9 7 -11 -7 -6 -14 6 -16 3 -10 -17 4 -17 3
-20 -3 -10 -8 11 -12 9 -22 -9 -9 -18 -9 -21 0 -15 7 4 3 -5 -9 -22 -12 -16
-23 -40 -23 -54 -1 -13 -6 -30 -12 -38 -6 -8 -13 -70 -15 -138 -2 -103 1 -137
19 -205 12 -45 26 -88 30 -97 5 -9 17 -37 27 -63 9 -25 20 -45 24 -42 4 2 9
-10 13 -27 6 -30 29 -62 39 -53 2 3 7 -2 11 -11 4 -11 2 -14 -7 -9 -6 4 -2 -4
11 -18 12 -13 22 -27 22 -31 0 -15 62 -92 72 -89 5 1 7 -1 4 -6 -7 -12 128
-159 142 -154 7 2 11 -1 10 -8 -2 -6 30 -41 71 -78 41 -37 71 -61 67 -54 -4 7
-2 12 5 12 8 0 7 5 -2 18 -13 15 -12 16 2 4 10 -7 15 -21 12 -31 -3 -14 8 -28
44 -52 26 -19 51 -34 56 -35 4 -1 12 -2 17 -3 6 0 9 -6 8 -11 -2 -6 23 -26 55
-45 67 -41 75 -38 15 4 -24 16 -55 41 -70 56 -16 14 -28 22 -28 18 0 -4 -5 0
-11 10 -6 9 -15 15 -20 11 -5 -3 -8 -2 -7 3 4 10 -142 183 -154 183 -5 0 -6 5
-2 12 5 7 2 9 -8 5 -11 -4 -14 -1 -11 12 2 9 -7 29 -21 44 -14 15 -23 27 -20
27 3 0 -3 12 -14 28 -22 30 -122 226 -122 239 -1 20 -37 83 -44 76 -5 -5 -5 2
-2 15 5 13 3 22 -4 22 -6 0 -10 6 -9 13 1 6 1 21 0 32 -1 17 -3 18 -11 5 -7
-11 -8 -5 -3 19 4 23 3 32 -5 28 -6 -5 -8 0 -5 13 3 11 0 26 -6 34 -6 7 -8 22
-4 31 3 10 2 16 -3 13 -5 -4 -9 41 -9 108 0 62 3 106 6 96 5 -12 9 -5 15 23 4
22 7 46 5 54 -1 7 2 10 8 6 10 -5 11 -2 11 20 0 3 14 22 32 41 18 20 32 41 30
46 -1 5 2 7 8 3 14 -9 13 8 -2 25 -11 12 -10 12 5 0 16 -12 22 -9 51 23 18 20
30 38 27 40 -3 2 -1 2 6 1 6 -1 34 6 62 17 39 14 51 16 51 6 0 -8 11 -20 25
-27 13 -7 22 -18 18 -23 -3 -6 -1 -7 6 -3 6 4 9 11 6 16 -3 4 0 10 7 12 10 4
10 11 0 34 -13 28 -13 28 6 11 19 -17 21 -17 51 22 19 23 29 46 25 52 -4 8 -3
9 4 5 17 -10 56 29 46 46 -6 10 -4 10 9 -1 15 -12 21 -9 18 11 0 5 3 7 8 5 4
-1 18 9 30 23 13 14 20 19 16 12 -4 -7 15 2 42 20 26 18 50 36 51 41 2 4 9 7
16 7 7 0 21 9 31 20 10 11 21 17 26 14 4 -2 25 5 46 16 21 11 44 20 51 20 7 0
10 4 7 10 -3 5 0 7 8 4 8 -3 21 2 30 10 8 8 17 13 19 11 4 -4 37 7 128 41 12
5 11 8 -5 14 -17 8 -16 8 7 7 15 -1 24 -5 21 -10 -3 -5 3 -7 13 -4 11 4 32 9
47 13 22 5 26 10 21 27 -6 20 -6 20 10 4 21 -21 32 -22 40 -2 3 8 11 15 18 15
9 0 9 -3 -2 -11 -12 -8 -10 -9 10 -5 14 4 39 9 55 12 133 25 140 27 120 35
-13 6 -9 7 15 3 30 -6 105 -7 128 -2 4 1 15 -2 25 -7 10 -4 53 -5 95 -3 42 3
68 2 57 -3 -16 -6 -12 -8 17 -8 20 -1 69 -8 109 -16 40 -9 79 -13 86 -11 7 3
13 0 13 -6 0 -7 12 -8 33 -4 18 3 26 2 19 -2 -15 -10 63 -37 78 -27 6 3 10 1
10 -5 0 -7 7 -9 16 -6 8 3 13 2 10 -3 -3 -4 6 -13 20 -20 14 -6 23 -8 20 -3
-2 4 4 8 14 8 10 0 16 -4 14 -8 -6 -10 104 -117 113 -109 3 3 3 0 -1 -6 -4 -7
-2 -22 4 -34 17 -31 24 -447 11 -620 -11 -145 -28 -256 -58 -378 -13 -53 -13
-65 -2 -73 11 -7 9 -8 -5 -4 -18 6 -18 -1 -13 -161 4 -147 8 -178 31 -246 31
-92 54 -130 73 -123 8 3 11 2 8 -4 -3 -5 4 -17 15 -27 19 -19 19 -19 -13 -31
-40 -14 -181 -33 -248 -34 -27 0 -49 -4 -49 -10 0 -5 10 -6 21 -3 14 5 19 3
15 -3 -8 -14 53 -44 75 -37 9 3 21 0 25 -6 4 -7 3 -9 -4 -5 -6 3 -13 2 -17 -4
-3 -5 0 -10 9 -10 8 0 16 -3 18 -7 6 -16 153 -107 167 -104 7 1 10 -2 7 -7 -8
-14 21 -35 39 -28 9 3 13 2 10 -4 -12 -19 109 -125 129 -113 6 3 8 2 3 -2 -10
-11 23 -46 36 -38 5 3 7 1 4 -5 -4 -5 9 -30 29 -54 43 -51 50 -58 39 -38 -5 8
-5 12 -1 8 4 -3 15 -21 25 -40 9 -18 22 -32 30 -30 7 1 10 -2 6 -8 -8 -13 14
-42 25 -35 5 3 12 0 16 -6 4 -8 3 -9 -4 -5 -18 11 -14 -2 10 -34 11 -16 26
-26 31 -23 6 3 7 1 3 -5 -9 -15 15 -63 27 -55 7 4 8 0 4 -11 -6 -14 -3 -17 9
-12 15 6 15 4 3 -11 -12 -15 -12 -16 1 -8 42 24 70 48 65 56 -4 5 2 6 11 2 13
-5 15 -3 9 7 -6 10 -4 12 8 7 9 -3 19 -2 22 3 3 5 26 19 50 31 25 12 45 26 45
31 0 4 9 8 20 8 27 0 26 35 -2 54 -17 12 -24 13 -30 3 -6 -8 -8 -6 -6 7 2 10
-5 23 -16 30 -27 16 -117 105 -150 148 -15 21 -32 36 -36 33 -5 -3 -12 0 -16
6 -4 8 -3 9 4 5 19 -11 14 9 -6 27 -10 10 -22 14 -27 10 -4 -5 -5 1 -1 11 5
13 -2 30 -22 55 -25 32 -61 104 -103 208 -7 17 -18 29 -23 26 -5 -4 -7 1 -3
10 3 8 -1 21 -8 27 -8 7 -13 16 -10 20 4 7 -47 244 -62 290 -5 15 -7 26 -17
119 -3 24 -10 49 -16 55 -5 5 -10 15 -10 21 0 5 5 3 11 -5 7 -10 8 23 3 110
-13 207 -7 589 10 675 28 148 29 157 15 166 -11 7 -10 9 4 9 18 0 21 8 10 35
-5 15 -8 14 -19 -6 -13 -24 -13 -24 -14 -2 0 12 4 24 10 28 5 3 7 11 5 18 -11
34 -12 122 0 175 7 34 11 63 9 65 -3 2 3 20 11 40 8 21 12 37 8 37 -4 0 -2 5
5 12 7 7 12 22 12 35 0 13 5 23 12 23 6 0 9 3 5 6 -3 3 4 23 17 43 13 20 26
46 30 58 4 11 13 26 21 33 8 6 12 17 9 25 -3 7 0 16 7 21 8 5 10 3 4 -7 -4 -8
10 6 31 31 21 24 47 53 57 63 10 10 15 22 12 27 -3 5 0 8 7 5 7 -3 32 13 56
35 23 21 42 37 42 35 0 -2 26 12 57 31 31 19 61 34 66 34 4 0 5 4 2 10 -3 5 0
7 9 4 8 -3 23 4 33 15 9 12 22 21 28 21 5 0 3 -5 -5 -11 -13 -9 -13 -10 0 -5
8 3 34 10 58 17 31 8 40 14 30 20 -8 5 1 6 21 2 20 -3 32 -2 29 3 -4 5 10 10
29 12 19 1 40 5 46 9 6 3 22 8 36 9 14 2 40 5 56 7 17 3 109 12 205 22 204 20
490 16 633 -10 49 -9 98 -13 110 -10 18 5 19 4 7 -5 -12 -9 -10 -11 12 -7 17
2 25 0 21 -6 -4 -6 0 -8 9 -4 9 3 20 1 25 -4 6 -6 24 -11 41 -11 18 -1 29 -5
25 -11 -3 -5 0 -8 8 -5 8 3 20 -2 28 -9 8 -8 22 -12 33 -10 10 3 16 1 12 -4
-8 -13 10 -11 25 4 10 10 12 9 9 -3 -2 -9 16 -24 47 -40 49 -26 64 -30 115
-31 20 -1 22 -2 7 -10 -11 -7 -25 -6 -39 1 -21 10 -21 10 2 -9 28 -23 35 -25
59 -12 21 12 49 -23 29 -35 -6 -4 -8 -3 -4 4 10 16 -14 26 -27 12 -9 -9 -9
-11 -1 -7 7 4 15 0 18 -8 3 -8 9 -14 13 -13 5 2 30 -18 57 -44 41 -39 54 -46
76 -41 15 3 30 1 33 -5 4 -5 -4 -7 -18 -4 -15 2 -25 0 -25 -7 0 -6 4 -11 8
-11 4 0 25 -23 46 -51 33 -44 39 -49 54 -37 15 12 16 11 3 -4 -11 -14 -11 -21
-1 -33 7 -8 17 -12 23 -8 6 3 7 1 3 -5 -4 -6 1 -23 10 -37 13 -20 19 -23 26
-13 6 9 7 7 6 -7 -3 -21 62 -174 74 -175 4 0 5 8 2 18 -5 14 -4 15 5 2 6 -9 6
-19 1 -24 -10 -10 9 -58 20 -51 4 2 5 -7 2 -20 -2 -14 0 -25 5 -25 5 0 9 -8
10 -17 5 -51 28 -123 40 -123 7 0 13 5 13 12 0 6 3 8 7 4 5 -4 0 -13 -9 -20
-17 -12 -17 -18 -1 -102 17 -91 23 -442 10 -564 -9 -92 -54 -301 -81 -377 -26
-76 -26 -97 0 -40 11 22 13 25 9 7 -4 -14 -7 -30 -7 -37 -1 -7 -5 -10 -9 -7
-15 9 -40 -28 -34 -50 4 -13 3 -16 -2 -9 -6 9 -16 -1 -31 -32 -25 -51 -28 -70
-9 -59 7 5 6 0 -3 -11 -11 -14 -12 -19 -2 -22 6 -3 12 -9 12 -15 0 -6 -6 -5
-15 2 -9 7 -14 19 -11 27 9 23 0 14 -29 -26 -15 -23 -24 -45 -19 -52 4 -7 3
-10 -3 -6 -14 9 -86 -79 -78 -93 4 -6 1 -9 -7 -8 -7 2 -12 -3 -11 -9 2 -7 -3
-12 -10 -10 -6 1 -11 -4 -9 -11 1 -8 -2 -11 -7 -8 -12 8 -43 -23 -36 -35 4 -5
0 -6 -8 -3 -8 3 -20 -3 -28 -13 -13 -17 -13 -17 6 -3 19 14 19 14 6 -2 -7 -10
-17 -15 -23 -12 -18 11 -38 -18 -33 -48 5 -27 3 -30 -15 -24 -11 3 -30 9 -42
13 -13 4 -19 2 -15 -4 4 -6 0 -14 -9 -17 -8 -3 -12 -2 -9 4 3 6 -1 7 -9 4 -9
-3 -13 -11 -9 -17 3 -6 1 -7 -6 -3 -6 4 -23 0 -38 -9 -22 -15 -24 -22 -19 -53
3 -21 6 -97 7 -171 1 -122 3 -134 20 -138 10 -3 19 -8 19 -12 0 -10 72 -36 89
-32 7 1 10 -2 6 -8 -9 -15 8 -14 24 2 10 10 11 9 6 -4 -7 -18 39 -44 57 -33 7
5 8 2 3 -6 -6 -10 -4 -12 9 -7 9 4 15 3 12 -2 -6 -9 111 -67 131 -65 7 1 10
-3 6 -9 -4 -7 0 -8 13 -3 10 4 15 4 11 0 -10 -11 31 -36 46 -28 6 4 9 3 4 -1
-8 -10 91 -67 104 -60 4 3 11 0 15 -6 5 -8 2 -10 -7 -5 -8 4 -3 -2 11 -13 14
-11 33 -21 42 -21 9 0 18 -3 20 -7 8 -19 79 -63 91 -57 6 4 9 4 5 -1 -4 -4 6
-18 21 -31 32 -26 46 -31 35 -11 -4 7 -3 9 2 4 5 -5 9 -13 9 -18 0 -5 5 -10
10 -11 6 -1 18 -11 28 -22 10 -12 15 -14 11 -6 -4 8 10 -2 31 -22 20 -21 41
-35 46 -32 5 3 21 -4 35 -15 15 -12 21 -21 14 -21 -8 0 -4 -10 10 -25 13 -14
30 -23 38 -20 7 2 10 0 7 -5 -9 -15 48 -61 58 -47 6 8 7 5 3 -6 -7 -21 72
-120 87 -110 5 3 3 9 -4 14 -8 5 -9 9 -3 9 6 0 18 -8 25 -17 12 -14 12 -16 0
-8 -11 6 -13 4 -8 -9 5 -12 3 -15 -6 -11 -6 4 -5 0 3 -7 8 -7 20 -22 27 -33 6
-11 16 -19 23 -17 6 1 10 -6 8 -15 -2 -11 2 -17 10 -15 7 1 12 -5 10 -15 -2
-11 2 -17 10 -15 8 1 11 -2 7 -7 -3 -6 10 -39 30 -73 20 -35 57 -105 82 -156
37 -74 49 -91 64 -87 9 3 20 2 23 -3 3 -6 -2 -9 -11 -8 -25 2 -26 -18 -2 -45
l21 -24 -16 28 c-9 15 -13 27 -8 27 16 0 31 -47 19 -59 -8 -8 -8 -11 2 -11 7
0 9 -4 6 -10 -3 -5 0 -20 6 -32 7 -13 14 -32 15 -43 4 -33 23 -75 34 -75 5 0
10 -5 10 -11 0 -5 -4 -7 -10 -4 -11 7 -14 -18 -3 -29 4 -3 8 -12 9 -19 0 -7 4
-36 8 -66 4 -29 15 -65 24 -79 12 -19 13 -24 3 -18 -11 7 -13 4 -8 -15 3 -13
11 -76 17 -139 6 -63 15 -122 20 -131 5 -9 6 -26 3 -37 -5 -22 14 -517 23
-592 6 -45 5 -46 -55 -104 -33 -33 -58 -63 -55 -68 3 -5 0 -7 -8 -6 -7 2 -12
-4 -10 -12 2 -8 0 -12 -4 -8 -12 12 -33 -12 -27 -30 3 -12 2 -13 -4 -5 -12 17
-57 -13 -47 -30 4 -7 4 -9 0 -5 -10 8 -102 -62 -98 -74 1 -5 -2 -7 -6 -4 -5 3
-25 -9 -43 -27 -19 -17 -36 -31 -39 -31 -11 2 -49 -29 -45 -36 3 -5 0 -12 -6
-16 -8 -4 -9 -3 -5 4 11 19 -9 14 -27 -6 -10 -10 -14 -22 -10 -27 5 -4 1 -6
-8 -3 -8 3 -26 0 -40 -8 -28 -16 -17 -19 14 -3 21 10 21 10 2 -6 -11 -8 -26
-13 -34 -10 -13 5 -87 -37 -102 -58 -3 -5 -10 -8 -15 -7 -20 2 -85 -34 -80
-46 3 -8 -2 -10 -16 -6 -16 4 -19 2 -13 -8 6 -10 4 -12 -8 -7 -21 8 -49 -2
-41 -14 3 -5 -3 -6 -13 -2 -16 6 -17 5 -3 -13 14 -17 14 -18 -2 -6 -14 12 -22
11 -45 -1 -15 -9 -61 -28 -100 -42 -40 -15 -75 -31 -78 -35 -3 -5 -13 -6 -22
-3 -12 5 -14 3 -8 -7 5 -9 4 -11 -4 -6 -7 5 -26 2 -43 -5 l-30 -12 26 -14 c14
-7 26 -16 26 -19 0 -3 -16 3 -35 15 -32 18 -38 19 -73 7 -21 -8 -73 -22 -116
-31 -54 -12 -74 -20 -65 -27 9 -5 0 -7 -26 -3 -28 5 -36 3 -26 -3 10 -8 4 -10
-25 -9 -21 0 -50 -3 -64 -7 -14 -4 -55 -10 -92 -13 -37 -3 -66 -8 -64 -12 2
-3 -46 -8 -107 -9 -62 -2 -116 -7 -122 -10 -5 -3 -26 -5 -46 -3 -20 1 -40 -2
-44 -8 -3 -6 -12 -11 -18 -11 -8 0 -8 3 1 9 8 5 -37 11 -115 15 -70 4 -146 10
-168 13 -22 2 -71 6 -109 7 -44 1 -71 6 -74 14 -2 7 -13 12 -25 12 -26 0 -296
61 -387 88 -36 10 -71 17 -77 15 -7 -3 -13 0 -13 5 0 10 -88 38 -107 34 -7 -2
-13 2 -13 8 0 6 -4 9 -9 6 -5 -4 -11 -1 -13 5 -3 8 -16 6 -43 -5 -33 -13 -37
-13 -21 -1 11 8 25 15 30 15 6 1 -16 12 -48 25 -33 14 -61 23 -64 20 -2 -2
-11 3 -19 11 -9 8 -22 13 -30 10 -8 -3 -12 -2 -9 3 8 12 -43 32 -68 26 -11 -2
-15 -2 -7 1 21 10 -131 84 -160 78 -18 -3 -19 -2 -7 3 15 7 10 13 -26 35 -39
23 -47 25 -63 13 -10 -8 -13 -15 -8 -15 6 0 17 6 25 13 12 10 12 9 2 -5 -10
-13 -10 -17 0 -21 7 -2 2 -4 -12 -3 -20 1 -26 6 -26 23 0 12 4 19 8 17 4 -3 8
-1 8 5 0 13 -44 43 -58 39 -5 -2 -21 8 -34 22 -31 32 -67 56 -80 52 -5 -1 -7
2 -3 7 7 12 -29 33 -40 23 -5 -4 -5 -2 -1 5 7 13 -80 76 -95 67 -5 -3 -6 -10
-3 -16 5 -7 2 -8 -5 -4 -9 6 -8 13 6 29 18 20 17 20 -3 15 -13 -3 -21 0 -21 8
0 7 4 11 9 8 16 -10 8 3 -14 22 -12 10 -19 14 -15 8 3 -6 0 -11 -7 -11 -8 0
-12 6 -9 13 7 19 -63 88 -79 78 -7 -5 -22 -9 -33 -11 -11 -1 -15 1 -8 3 7 3 9
12 6 19 -4 11 -10 12 -25 4 -11 -6 -22 -9 -24 -6 -2 2 7 9 21 15 21 10 26 9
36 -9 8 -16 13 -18 25 -9 15 13 9 34 -7 25 -5 -3 -6 1 -3 10 5 11 2 14 -12 8
-12 -4 -15 -3 -10 5 4 7 2 12 -3 12 -6 0 -11 -4 -11 -10 0 -5 -7 -6 -17 -3 -9
4 -14 2 -11 -3 3 -5 -10 -10 -30 -11 -19 -1 -38 -7 -42 -14 -4 -6 -12 -9 -17
-6 -5 3 -32 -1 -59 -9 -27 -8 -62 -17 -79 -18 -54 -6 -190 -27 -205 -32 -8 -3
-51 -8 -95 -11 -44 -3 -96 -6 -115 -8 -19 -1 -75 -4 -125 -5 -62 -1 -82 -4
-65 -10 14 -5 18 -8 9 -9 -9 -1 -33 6 -52 14 -24 10 -69 15 -130 15 -52 0
-118 4 -148 10 -30 5 -112 19 -184 30 -245 40 -618 134 -716 181 -9 4 -27 5
-40 2 -17 -3 -20 -2 -11 5 10 7 -4 16 -52 35 -36 15 -72 24 -80 21 -8 -3 -17
-1 -21 5 -4 7 1 9 12 5 10 -3 6 2 -10 11 -15 9 -31 13 -36 10 -12 -7 -42 5
-36 15 7 11 -24 22 -38 13 -7 -3 -9 -3 -5 1 9 11 -81 58 -98 52 -9 -3 -11 0
-7 11 5 13 2 15 -11 10 -10 -4 -15 -3 -11 3 5 9 1 11 -20 10 -3 0 -14 8 -25
17 -10 10 -36 27 -57 38 -21 11 -45 25 -53 32 -98 77 -135 111 -164 148 -18
24 -36 42 -39 39 -3 -3 -8 0 -13 7 -4 8 -3 10 4 5 15 -9 15 -7 1 33 -6 17 -16
31 -22 31 -8 0 -8 3 1 8 10 7 9 41 -3 173 -15 167 -21 544 -11 634 4 28 8 75
10 105 3 30 8 74 11 96 5 27 3 50 -6 65 -11 22 -11 23 5 10 16 -13 17 -13 15
0 -1 7 1 21 4 29 4 8 11 33 16 55 5 22 12 49 16 60 5 16 5 17 -4 5 -8 -11 -11
-11 -11 -2 0 7 6 15 14 18 8 3 12 13 9 25 -3 10 0 19 6 19 6 0 10 3 9 8 -1 8
5 26 30 85 8 21 16 53 16 71 1 19 6 32 11 29 14 -5 39 63 29 78 -4 8 -3 9 4 5
10 -6 48 52 51 77 0 4 8 18 17 32 9 13 13 29 9 35 -4 6 -1 9 6 8 7 -2 17 6 23
17 6 11 21 35 34 52 12 17 22 36 22 41 0 5 7 13 16 16 9 3 14 13 10 21 -3 9
11 32 37 58 23 24 33 32 22 17 -73 -91 -69 -88 51 40 43 46 70 78 59 70 -14
-10 -16 -10 -8 -1 6 7 22 19 35 25 12 6 23 18 23 26 0 8 7 14 15 13 8 -1 33
13 55 32 22 19 43 35 48 35 4 0 5 5 2 10 -3 6 0 10 7 10 7 0 25 11 40 25 15
14 32 25 37 25 5 0 16 6 23 13 7 6 30 21 51 32 44 23 72 50 41 39 -10 -4 -16
-4 -12 1 4 4 20 8 35 9 18 1 27 6 25 14 -1 8 2 11 7 8 13 -9 81 25 75 36 -3 5
0 9 7 7 27 -3 46 1 65 17 18 14 18 14 -6 3 -23 -11 -24 -11 -11 5 8 9 10 16 5
15 -14 -3 -48 13 -60 30 -6 8 -18 12 -28 8 -9 -4 -14 -3 -11 2 3 5 -4 16 -16
25 -17 12 -27 13 -43 4 -18 -10 -19 -9 -9 4 15 18 7 29 -15 21 -10 -4 -14 -2
-9 2 8 9 -21 45 -37 45 -5 0 -21 12 -34 28 -13 15 -21 22 -18 15 4 -6 2 -14
-3 -18 -6 -3 -8 5 -5 19 3 18 -3 28 -24 42 -15 10 -30 18 -34 16 -4 -1 -5 5
-2 13 4 9 -2 18 -17 24 -13 5 -20 10 -16 10 5 1 5 6 2 11 -5 8 -12 7 -23 -2
-15 -11 -15 -11 -5 3 10 13 7 23 -18 58 -27 36 -33 40 -48 29 -14 -11 -14 -11
-3 3 12 16 7 53 -7 45 -4 -3 -8 5 -8 16 -1 11 -8 28 -15 37 -8 9 -27 41 -42
71 -16 30 -36 62 -47 71 -13 12 -15 19 -6 28 8 8 8 11 -2 11 -7 0 -10 4 -7 9
7 11 -38 116 -53 126 -6 3 -11 12 -11 18 0 7 4 6 10 -3 13 -20 13 -8 -1 27
-10 26 -12 26 -19 8 -5 -13 -7 -3 -7 30 0 28 -2 59 -6 70 -3 11 -6 28 -6 38
-1 10 -6 15 -11 12 -6 -4 -10 5 -9 22 0 15 -6 93 -15 173 -17 165 -25 344 -14
327 4 -7 8 12 8 41 0 28 7 98 15 154 9 56 13 108 11 115 -3 7 -1 13 4 13 4 0
13 19 18 43 6 23 15 56 20 74 9 27 8 31 -6 27 -15 -5 -15 -4 0 6 22 13 60 99
53 117 -2 8 -1 12 4 9 5 -3 12 1 15 10 11 28 7 37 -11 23 -15 -13 -15 -12 -2
8 8 14 16 18 20 11 9 -14 48 62 42 80 -3 7 1 11 7 10 7 -2 15 3 18 11 3 9 0
11 -8 6 -9 -5 -11 -4 -6 4 4 6 12 9 17 6 5 -4 12 2 16 12 3 10 16 29 28 43 14
15 22 35 20 50 -1 14 -3 32 -4 40 -1 13 -3 13 -10 1 -7 -10 -9 -6 -8 13 2 22
4 24 13 11 6 -8 14 -11 19 -7 4 4 4 -4 0 -18 -7 -23 -7 -24 11 -10 18 15 18
14 1 -15 -15 -25 -12 -24 18 9 19 22 34 46 33 54 -2 8 3 17 11 20 9 3 11 0 7
-9 -4 -8 0 -5 8 5 9 11 16 26 16 34 0 7 4 11 8 8 5 -3 42 28 82 69 40 41 77
75 81 75 5 0 9 5 9 11 0 5 -6 7 -12 3 -8 -4 -9 -3 -5 2 5 5 14 9 20 9 7 0 12
5 12 10 0 6 -3 9 -7 8 -4 -2 -5 4 -1 12 5 13 7 13 18 -2 13 -17 15 -17 37 3
13 12 42 34 65 49 24 15 40 31 37 36 -3 5 3 6 12 2 12 -4 15 -3 10 6 -6 8 -2
11 10 9 13 -2 19 3 18 14 -1 12 5 15 22 12 27 -5 128 39 117 50 -5 4 -1 7 7 6
36 -5 46 0 26 15 -13 9 -15 15 -7 15 8 0 19 -7 25 -15 9 -13 15 -13 36 -2 14
8 32 14 40 14 28 0 225 36 232 42 11 9 535 6 596 -3z"/>
<path d="M5134 7663 c-4 -10 -6 -24 -5 -31 1 -7 -4 -11 -11 -10 -8 2 -14 -8
-16 -25 -2 -15 -7 -25 -12 -22 -13 8 -80 -212 -80 -262 0 -24 7 -55 16 -68 9
-13 13 -29 9 -35 -3 -5 -1 -10 6 -10 7 0 10 -3 6 -6 -10 -11 31 -47 44 -39 7
5 10 4 6 -2 -12 -19 20 -34 85 -39 34 -2 71 -7 80 -10 9 -3 128 3 265 12 136
10 282 17 323 16 52 -2 70 1 60 8 -9 6 -10 10 -3 10 6 0 15 -4 18 -10 3 -5 15
-10 26 -10 10 0 19 5 19 10 0 6 5 10 11 10 5 0 8 -4 5 -9 -3 -5 29 -12 72 -16
42 -3 105 -13 139 -21 44 -9 70 -11 88 -4 36 14 42 12 19 -5 -18 -13 -18 -14
-1 -15 18 0 83 -24 165 -61 24 -11 48 -16 54 -13 6 4 8 2 4 -4 -3 -6 4 -14 16
-17 13 -4 35 -18 50 -32 16 -15 31 -22 39 -18 7 5 10 4 6 -2 -8 -13 47 -66 58
-56 4 5 5 2 1 -5 -5 -9 2 -24 20 -43 15 -16 29 -36 30 -43 1 -8 10 -25 19 -38
l17 -23 -7 25 c-5 21 -4 22 5 7 6 -9 8 -22 5 -27 -4 -6 3 -30 14 -53 12 -24
30 -77 40 -118 11 -41 21 -65 21 -54 2 17 3 16 10 -5 11 -36 11 -60 -1 -35 -7
15 -8 12 -4 -15 3 -19 9 -56 12 -82 3 -27 10 -48 15 -48 5 0 7 -9 3 -19 -3
-11 -1 -22 5 -26 5 -3 7 -17 4 -30 -3 -12 -1 -26 5 -29 5 -4 7 -14 4 -24 -6
-15 -5 -15 11 -3 12 10 14 17 6 25 -17 17 -11 29 8 15 9 -7 14 -10 10 -5 -4 5
-1 20 6 35 26 53 38 129 38 244 -1 119 -7 151 -23 126 -6 -10 -9 -10 -9 -2 0
6 5 15 11 18 11 8 7 45 -18 160 l-16 69 -18 -23 c-22 -26 -26 -16 -5 12 15 20
10 61 -7 50 -6 -3 -7 -1 -3 5 4 7 4 18 -1 25 -4 6 -8 18 -9 25 -2 8 -14 32
-29 54 -21 31 -29 37 -40 28 -10 -8 -15 -8 -21 1 -5 8 -3 9 6 4 10 -6 12 -4 7
9 -5 11 -3 15 5 10 21 -13 -25 40 -56 66 -24 19 -28 20 -17 5 8 -11 3 -8 -11
6 -35 35 -95 72 -107 65 -5 -3 -11 0 -14 8 -5 11 -155 66 -197 71 -8 1 -22 5
-30 8 -42 15 -114 27 -132 21 -14 -4 -18 -2 -14 5 9 13 -9 14 -52 2 -37 -11
-43 -5 -9 10 19 8 19 9 -7 4 -16 -4 -32 -1 -36 4 -7 12 -176 30 -415 45 -55 3
-113 9 -130 13 -16 3 -40 7 -52 7 -11 1 -19 4 -17 8 7 10 -13 19 -46 20 -16 1
-27 4 -25 9 6 9 -61 32 -74 25 -5 -3 -20 -1 -33 4 -22 10 -22 10 5 5 15 -3 27
-3 27 -1 0 9 -82 46 -91 40 -5 -3 -8 0 -7 8 2 7 -2 12 -9 11 -7 -2 -17 6 -23
17 -6 11 -16 17 -22 14 -6 -4 -8 -3 -5 3 4 6 -3 19 -14 29 -12 10 -27 31 -35
46 -17 32 -29 35 -40 11z"/>
<path d="M3158 5714 c12 -9 39 -32 60 -51 58 -54 91 -78 166 -118 81 -44 225
-97 176 -65 -10 7 -11 10 -2 10 7 0 15 -6 18 -14 3 -8 13 -15 22 -15 9 0 35
-4 57 -10 47 -12 118 -14 206 -4 60 7 62 8 29 15 -30 6 -27 6 13 4 50 -4 131
20 121 35 -3 5 4 9 15 9 12 0 21 4 21 9 0 5 8 8 18 7 9 0 16 4 15 11 -2 8 4
10 14 6 11 -4 14 -3 9 5 -4 7 -1 12 9 12 9 0 14 4 10 9 -3 6 -29 1 -63 -11
-31 -11 -77 -22 -102 -25 -25 -3 -53 -8 -62 -12 -9 -3 -88 -2 -175 2 -87 5
-176 9 -197 9 -27 0 -35 3 -25 9 12 7 12 9 -1 10 -50 5 -62 7 -89 19 -17 7
-38 9 -47 6 -14 -5 -15 -4 -4 9 15 18 -1 20 -18 3 -9 -9 -15 -9 -24 1 -11 10
-10 11 5 6 32 -13 17 12 -15 26 -18 7 -53 27 -78 45 -25 17 -58 39 -75 48 -28
17 -29 17 -7 0z"/>
<path d="M4250 5552 c0 -7 5 -12 11 -12 5 0 7 -5 4 -10 -4 -6 -1 -17 5 -25 9
-11 9 -15 1 -15 -8 0 -12 -33 -12 -112 0 -62 -2 -131 -5 -153 -2 -22 -5 -54
-6 -72 -1 -17 -6 -30 -10 -27 -4 3 -9 2 -9 -3 -6 -39 -5 -60 5 -73 9 -13 9
-13 -5 -3 -9 7 -19 9 -24 5 -4 -4 -2 3 4 16 6 12 9 22 7 22 -9 0 -61 -55 -61
-65 0 -5 -8 -9 -18 -7 -9 2 -17 -2 -17 -8 0 -5 -7 -10 -15 -10 -8 0 -15 -5
-15 -10 0 -6 -3 -9 -7 -9 -5 1 -17 1 -28 0 -14 -1 -16 -4 -7 -9 8 -6 2 -9 -18
-9 -18 0 -35 -4 -38 -9 -4 -5 -20 -10 -36 -11 -16 0 -33 -8 -38 -17 -5 -9 -17
-16 -26 -15 -14 0 -14 2 3 10 15 7 12 8 -15 4 -19 -3 -54 -9 -78 -12 -24 -3
-39 -9 -34 -12 6 -3 -53 -5 -129 -4 -107 2 -156 7 -209 23 -38 11 -82 18 -97
15 -21 -4 -23 -3 -8 3 17 8 15 10 -17 21 -21 7 -43 9 -49 5 -7 -4 -9 -3 -6 3
4 6 -6 16 -21 22 -15 7 -47 24 -72 39 -25 14 -47 26 -50 26 -2 1 -20 18 -38
38 -19 21 -38 35 -43 32 -5 -3 -8 0 -7 8 2 7 -3 12 -11 10 -8 -2 -11 3 -8 12
9 23 -5 27 -26 9 -20 -18 -20 -18 -5 5 14 21 14 26 -1 55 -12 25 -16 60 -16
155 1 113 -4 142 -19 110 -3 -7 -4 -4 -1 8 4 14 0 21 -11 21 -19 0 -48 -42
-39 -57 3 -5 2 -10 -3 -10 -9 0 -18 -25 -29 -80 -3 -14 -7 -74 -10 -135 -4
-113 11 -193 63 -338 16 -47 17 -47 37 -30 19 18 20 17 8 -4 -6 -12 -11 -26
-11 -32 0 -19 30 -39 55 -37 21 3 23 1 13 -11 -6 -8 -14 -10 -17 -6 -3 4 -13
9 -21 11 -11 3 -10 -2 4 -17 16 -17 22 -19 35 -8 14 11 14 10 2 -6 -13 -16
-12 -21 11 -44 22 -22 29 -23 48 -13 12 6 24 9 27 7 2 -3 -5 -8 -16 -12 -29
-9 -27 -28 2 -20 14 4 17 3 9 -3 -9 -6 -6 -14 13 -32 14 -13 25 -20 25 -17 0
4 9 -2 21 -14 16 -16 23 -18 35 -9 7 7 12 16 9 20 -3 5 0 12 6 16 8 4 9 3 5
-4 -4 -8 0 -12 11 -13 14 0 13 -2 -5 -10 -13 -5 -20 -13 -17 -19 12 -19 84
-50 101 -43 12 4 15 3 10 -5 -4 -7 4 -14 21 -17 15 -4 36 -11 46 -16 23 -12
38 -2 17 11 -11 7 -11 10 -2 10 7 0 15 -7 18 -15 4 -8 17 -15 29 -15 13 0 25
-5 27 -11 2 -6 41 -12 87 -15 46 -2 87 -6 91 -9 10 -6 164 12 218 26 23 7 42
16 42 21 0 6 7 8 15 4 19 -7 47 3 39 15 -3 5 3 6 12 2 12 -4 15 -3 10 5 -4 8
-2 10 7 6 29 -11 254 147 240 169 -3 6 -2 7 4 4 11 -7 69 67 101 128 36 69 80
219 52 175 -16 -24 -12 7 5 39 9 18 12 45 9 72 -2 24 -6 64 -8 89 -4 65 -28
150 -39 143 -6 -4 -8 1 -4 11 5 12 -6 44 -29 90 -37 73 -64 111 -64 88z"/>
<path d="M7113 5083 c0 -10 8 -24 16 -33 9 -8 12 -12 7 -7 -24 18 -27 -1 -26
-140 1 -82 -1 -157 -6 -167 -4 -12 -4 -17 2 -13 5 3 10 -6 11 -21 0 -15 -1
-19 -4 -9 -7 27 -18 20 -37 -23 -10 -22 -26 -45 -37 -50 -10 -6 -19 -15 -19
-21 0 -6 4 -8 8 -5 5 3 9 -1 9 -9 0 -10 -5 -11 -19 -4 -14 7 -18 6 -18 -6 0
-8 -5 -15 -11 -15 -5 0 -7 5 -3 11 3 6 -13 -3 -37 -21 -27 -19 -43 -38 -41
-48 3 -13 1 -14 -12 -3 -15 12 -20 8 -17 -12 1 -5 -3 -6 -8 -3 -5 3 -36 -8
-69 -24 -34 -17 -66 -30 -72 -30 -6 0 -9 -3 -7 -7 3 -5 -5 -9 -16 -9 -12 -1
-56 -10 -97 -20 -57 -13 -113 -18 -235 -17 -167 0 -244 13 -332 53 -24 11 -47
20 -51 20 -5 0 -26 11 -46 25 -21 14 -34 20 -30 13 4 -7 -10 5 -30 27 -21 22
-35 35 -32 28 4 -6 1 -15 -6 -19 -7 -4 -10 -4 -6 1 11 11 -11 47 -24 39 -6 -4
-8 -3 -5 3 3 5 -4 20 -17 34 -12 13 -20 31 -18 38 3 8 1 11 -4 8 -5 -3 -9 5
-10 16 -3 63 -29 213 -38 219 -8 5 -7 8 1 8 7 0 10 7 6 17 -4 9 7 2 24 -15 18
-19 37 -30 45 -27 8 3 21 -2 29 -12 13 -16 12 -17 -4 -4 -9 8 -20 11 -23 8 -3
-3 4 -10 15 -17 12 -6 21 -8 21 -5 0 3 11 -2 24 -10 13 -9 28 -15 32 -13 5 1
25 -7 44 -17 71 -40 320 -26 460 25 30 11 56 20 58 20 2 0 0 5 -4 11 -4 7 -1
10 7 7 8 -3 20 2 27 11 8 9 11 10 7 4 -4 -9 -1 -11 9 -7 9 3 13 11 9 17 -3 6
-1 7 6 3 6 -4 18 0 27 8 8 9 23 20 32 25 16 9 16 11 -2 24 -12 8 -16 19 -11
27 7 11 -29 -8 -64 -34 -7 -6 -20 -11 -29 -12 -8 -2 -18 -6 -21 -11 -3 -4 -10
-8 -16 -8 -21 -1 -95 -29 -95 -36 0 -4 -7 -10 -16 -13 -10 -4 -13 -2 -8 6 5 8
2 9 -12 3 -10 -5 -29 -9 -41 -9 -16 -1 -19 -4 -11 -13 12 -15 3 -17 -21 -3
-23 12 -99 1 -79 -11 9 -6 6 -9 -10 -9 -13 0 -20 4 -17 10 9 15 -76 12 -107
-4 -24 -13 -26 -13 -23 5 3 16 0 18 -21 13 -14 -4 -24 -2 -24 5 0 6 -8 11 -17
11 -15 0 -16 -2 -3 -10 11 -7 11 -10 2 -10 -7 0 -10 -5 -6 -12 4 -7 3 -8 -5
-4 -6 4 -9 11 -7 15 3 4 1 13 -3 20 -7 10 -13 11 -31 1 -12 -6 -24 -9 -28 -6
-3 3 0 6 6 6 7 0 12 5 12 11 0 6 -9 8 -21 4 -12 -4 -19 -3 -16 2 5 7 -45 33
-73 38 -3 0 -19 9 -37 18 -39 21 -57 22 -23 1 23 -14 23 -14 3 -9 -32 9 -44
-28 -48 -142 -3 -95 5 -157 26 -208 7 -16 13 -37 14 -45 2 -17 44 -103 55
-110 3 -3 10 -13 13 -24 6 -16 10 -16 25 -5 15 13 16 12 4 -3 -12 -15 -6 -25
56 -89 55 -55 75 -69 91 -64 10 3 22 1 26 -4 3 -7 0 -8 -9 -5 -9 3 -16 2 -16
-4 0 -11 108 -77 127 -77 6 0 15 -4 19 -8 4 -4 17 -7 28 -8 13 0 16 -3 7 -6
-14 -6 18 -23 70 -37 18 -6 20 -5 9 3 -13 9 -13 11 2 11 9 0 18 -5 20 -12 5
-13 30 -20 71 -21 20 0 24 -2 15 -8 -9 -6 -6 -9 12 -9 14 0 43 -3 64 -7 28 -4
37 -3 32 5 -4 7 -1 12 9 12 9 0 13 -4 10 -10 -4 -6 5 -10 19 -10 14 0 26 5 26
10 0 6 5 10 11 10 5 0 7 -4 4 -10 -4 -6 8 -10 29 -10 20 0 36 3 36 8 0 4 12 8
28 8 75 5 186 40 175 57 -3 6 -1 7 6 3 14 -9 53 2 46 14 -3 4 2 11 11 14 8 3
12 2 9 -4 -10 -16 0 -12 25 10 12 11 26 18 29 16 10 -7 57 32 49 40 -4 4 -17
7 -29 8 -12 0 -24 8 -26 16 -3 10 -2 11 4 3 5 -6 21 -10 35 -9 15 2 25 0 23
-5 -3 -4 -1 -10 4 -13 14 -9 167 160 191 212 13 26 24 52 25 57 1 6 10 28 19
49 50 113 57 319 16 431 -13 33 -25 62 -27 65 -2 3 -14 -6 -25 -20 l-20 -25
16 28 c16 27 16 30 -4 62 -25 40 -27 41 -27 18z"/>
</g>
</svg>
